<svg xmlns="http://www.w3.org/2000/svg" viewBox="0 0 1600 1600" preserveAspectRatio="xMidYMid slice">
  <defs>
    <pattern id="p" width="200" height="200" patternUnits="userSpaceOnUse">
      <g opacity="0.35">
    <circle cx="50" cy="50" r="22" fill="none" stroke="#9fc5ff" stroke-width="3"/>
    <polygon points="50,38 61,46 57,59 43,59 39,46" fill="#9fc5ff"/>
    <path d="M50 38 L50 28 M61 46 L71 42 M57 59 L63 68 M43 59 L37 68 M39 46 L29 42" stroke="#9fc5ff" stroke-width="2.5" fill="none"/></g>
      <g opacity="0.35" transform="translate(100 100)">
    <circle cx="50" cy="50" r="22" fill="none" stroke="#9fc5ff" stroke-width="3"/>
    <polygon points="50,38 61,46 57,59 43,59 39,46" fill="#9fc5ff"/>
    <path d="M50 38 L50 28 M61 46 L71 42 M57 59 L63 68 M43 59 L37 68 M39 46 L29 42" stroke="#9fc5ff" stroke-width="2.5" fill="none"/></g>
    </pattern>
  </defs>
  <rect width="1600" height="1600" fill="#14213d"/>
  <rect width="1600" height="1600" fill="url(#p)"/>
</svg>
